# xmcd
#
# Track frame offsets:
#	150
#	21966
#	38859
#	62495
#	89009
#	118047
#	139208
#	157128
#	185828
#	209630
#	228709
#	251905
#	272845
#	291338
#	307066
#	326527
#	341490
#
# Disc length: 4750 seconds
#
# Revision: 1
# Processed by: cddbd v1.4PL0 Copyright (c) Steve Scherf et al.
# Submitted via: audiograbber 1.80.04
#
DISCID=19128c11
DTITLE=Teddy Pendergrass - The Ultimate Collection [CD1]
DYEAR=1900
DGENRE=
TTITLE0=Love T.K.O.
TTITLE1=In My Time
TTITLE2=2 a.m.
TTITLE3=Hold Me
TTITLE4=It Should've Been You
TTITLE5=You're My Choice Tonight (Choose Me)
TTITLE6=Love 4/2
TTITLE7=Voodoo
TTITLE8=Close The Door
TTITLE9=Stay With Me
TTITLE10=This Is The Last Time
TTITLE11=How Can You Mend A Broken Heart
TTITLE12=One Of Us Fell In Love
TTITLE13=I'm Always Thinking About You
TTITLE14=It's Over
TTITLE15=So Sad The Song
TTITLE16=If You Don't Know Me By Now
EXTD=
EXTT0=
EXTT1=
EXTT2=
EXTT3=
EXTT4=
EXTT5=
EXTT6=
EXTT7=
EXTT8=
EXTT9=
EXTT10=
EXTT11=
EXTT12=
EXTT13=
EXTT14=
EXTT15=
EXTT16=
PLAYORDER=
